<svg width="25" height="24" viewBox="0 0 25 25" fill="none" xmlns="http://www.w3.org/2000/svg">
<path d="M20.0934 21.1921C25.1624 16.9387 25.8258 9.35626 21.5724 4.28731C17.3191 -0.781634 9.73662 -1.44501 4.66767 2.80834C-0.401276 7.06169 -1.06465 14.6441 3.1887 19.7131C7.44205 24.782 15.0245 25.4454 20.0934 21.1921ZM7.24946 15.6247L15.8762 8.38597L11.2509 7.98132C10.9638 7.9562 10.7516 7.7033 10.7767 7.41619C10.7893 7.27264 10.858 7.14847 10.9611 7.06201C11.0641 6.97556 11.1983 6.92944 11.3419 6.942L17.2218 7.45642C17.2907 7.46245 17.3555 7.48258 17.4164 7.51395C17.5395 7.57824 17.6312 7.68752 17.6731 7.81993C17.6934 7.88535 17.702 7.95264 17.696 8.02155L17.1815 13.9015C17.1564 14.1886 16.9035 14.4008 16.6164 14.3757C16.3293 14.3505 16.1171 14.0976 16.1422 13.8105L16.5469 9.18527L7.92015 16.424C7.69847 16.61 7.36986 16.5798 7.18516 16.3597C7.00046 16.1395 7.02778 15.8107 7.24946 15.6247Z" fill="#020617"/>
</svg>
