<svg width="500" height="500" viewBox="0 0 500 500" fill="none" xmlns="http://www.w3.org/2000/svg">
<path d="M427.083 52.0835H72.9167L104.167 406.25L250 447.917L395.833 406.25L427.083 52.0835Z" fill="#0277BD"/>
<path d="M250 83.3335V415.625L366.667 382.292L392.708 83.3335H250Z" fill="#039BE5"/>
<path d="M344.792 135.417H250V177.083H301.042L297.917 218.75H250V260.417H295.833L292.708 307.292L250 321.875V365.625L332.292 338.542L339.583 218.75L344.792 135.417Z" fill="white"/>
<path d="M250 135.417V177.083H157.292L154.167 135.417H250ZM202.083 218.75L204.167 260.417H250V218.75H202.083ZM206.25 281.25H164.583L167.708 338.542L250 365.625V321.875L207.292 307.292L206.25 281.25Z" fill="#EEEEEE"/>
</svg>
