<svg width="500" height="500" viewBox="0 0 500 500" fill="none" xmlns="http://www.w3.org/2000/svg">
<g clipPath="url(#clip0_407_1007)">
<path fillRule="evenodd" clipRule="evenodd" d="M83.3333 166.667V298.396C69.3229 301.042 61.9687 302.083 50.8125 302.083C17.3958 302.052 0 287.135 0 258.5C0 230.906 18.4479 213 47.0417 213C51.4792 213 54.8542 213.344 58.9479 214.396V166.667H83.3333ZM58.9479 236.167C55.7396 235.125 53.1042 234.771 49.7187 234.771C35.8854 234.771 27.8854 243.198 27.8854 257.979C27.8854 272.364 35.5313 280.302 49.5417 280.302C52.5729 280.302 55.0313 280.135 58.9479 279.604V236.167Z" fill="#004D40"/>
<path fillRule="evenodd" clipRule="evenodd" d="M125 208.812V277.75C125 299.375 123.385 311.333 118.625 320.291C114.188 328.906 108.344 334.344 96.2709 340.344L70.8855 328.375C82.9584 322.76 88.8126 317.802 92.5417 310.229C96.448 302.489 97.6876 291.958 97.6876 268.385V208.792H125V208.812Z" fill="#004D40"/>
<path d="M125 166.667H97.677V194.927H125V166.667Z" fill="#004D40"/>
<path fillRule="evenodd" clipRule="evenodd" d="M143.063 217.458C154.896 211.708 166.219 209.177 178.563 209.177C192.323 209.177 201.365 212.958 205.365 220.354C207.604 224.49 208.333 229.875 208.333 241.406V297.729C196.333 299.511 181.188 300.792 170.073 300.792C147.615 300.792 137.542 292.688 137.542 274.698C137.542 255.24 150.927 246.25 183.802 243.386V237.292C183.802 232.261 181.354 230.438 174.594 230.438C164.698 230.438 153.552 233.334 143.094 238.896L143.063 217.458ZM185.01 261.531C167.281 263.313 161.521 266.208 161.521 273.417C161.521 278.813 164.833 281.344 172.146 281.344C176.146 281.344 179.802 280.99 185.01 280.094V261.531Z" fill="#004D40"/>
<path fillRule="evenodd" clipRule="evenodd" d="M223.104 215.552C238.938 211.167 251.979 209.167 265.198 209.167C278.927 209.167 288.875 212.469 294.771 218.854C300.313 224.875 302.083 231.479 302.083 245.552V300.792H275.271V246.677C275.271 235.864 271.781 231.844 262.229 231.844C258.573 231.844 255.261 232.208 249.875 233.875V300.802H223.104V215.552Z" fill="#004D40"/>
<path fillRule="evenodd" clipRule="evenodd" d="M314.344 312.562C323.917 317.625 333.5 319.958 343.635 319.958C361.562 319.958 369.198 315.031 369.198 297.292V296.75C363.885 299.437 358.521 300.562 351.448 300.562C327.469 300.562 312.5 284.448 312.5 258.927C312.5 227.229 334.802 209.323 374.729 209.323C386.458 209.323 397.302 210.583 410.427 213.312L401.062 233.417C393.781 231.979 400.469 233.198 394.979 232.667V235.573L395.333 247.344L395.51 262.562C395.688 266.375 395.687 270.167 395.865 273.979V281.583C395.865 305.489 393.885 314.198 388.042 323.458C379.521 337.021 364.771 343.739 343.813 343.739C333.146 343.739 323.917 342.125 314.344 338.312V312.562ZM368.667 231.781H367.781H365.802C360.49 231.604 354.26 233.042 349.99 235.771C343.448 239.573 340.062 246.469 340.062 256.229C340.062 270.156 346.823 278.125 358.896 278.125C362.625 278.125 365.656 277.406 369.177 276.333V274.323V266.719C369.177 263.448 369 259.823 369 256.021L368.823 243.167L368.646 233.937V231.781H368.667Z" fill="#004D40"/>
<path fillRule="evenodd" clipRule="evenodd" d="M453.813 208.812C482.49 208.812 500 226.104 500 254.104C500 282.812 481.75 300.802 452.667 300.802C423.958 300.802 406.25 283.521 406.25 255.698C406.302 226.813 424.552 208.812 453.813 208.812ZM453.219 278.667C464.229 278.667 470.729 269.938 470.729 254.771C470.729 239.781 464.406 230.875 453.406 230.875C442.021 230.875 435.51 239.604 435.51 254.771C435.521 269.938 442.062 278.667 453.219 278.667Z" fill="#004D40"/>
</g>
<defs>
<clipPath id="clip0_407_1007">
<rect width="500" height="500" fill="white"/>
</clipPath>
</defs>
</svg>
