<svg width="500" height="500" viewBox="0 0 500 500" fill="none" xmlns="http://www.w3.org/2000/svg">
<path d="M250 46.875C137.82 46.875 46.875 137.82 46.875 250C46.875 345.914 113.375 426.25 202.773 447.547C198.148 446.445 193.563 445.211 189.063 443.805V397.266C189.063 397.266 181.445 399.805 171.289 399.805C142.875 399.805 131.07 374.453 128.125 361.719C126.336 353.961 121.664 346.609 116.648 342.117C110.656 336.773 107.852 336.758 107.813 334.93C107.734 331.094 112.953 331.25 115.43 331.25C128.125 331.25 137.75 344.758 142.219 351.742C153.289 368.984 165.172 371.875 171.289 371.875C178.906 371.875 185.484 370.734 190.016 368.547C192.109 353.797 198.672 340.656 209.375 331.25C161.742 321.727 128.125 294.406 128.125 250C128.125 227.125 137.305 206.102 152.602 189.125C151.039 184.695 148.438 175.734 148.438 161.133C148.438 151.484 149.109 139.641 153.516 128.125C153.516 128.125 182.484 128.328 209.805 154.203C222.414 150.531 235.906 148.438 250 148.438C264.094 148.438 277.586 150.531 290.195 154.203C317.516 128.328 346.484 128.125 346.484 128.125C350.914 139.641 351.562 151.484 351.562 161.133C351.562 176.875 349.469 186.055 348.188 190.016C363.016 206.836 371.875 227.531 371.875 250C371.875 294.406 338.258 321.727 290.625 331.25C303.344 342.422 310.937 358.695 310.937 376.953V443.805C306.437 445.219 301.859 446.445 297.227 447.547C386.625 426.25 453.125 345.914 453.125 250C453.125 137.82 362.18 46.875 250 46.875ZM264.164 452.578C259.484 452.906 254.766 453.125 250 453.125C254.766 453.125 259.477 452.898 264.164 452.578ZM250 453.125C245.234 453.125 240.516 452.906 235.836 452.578C240.523 452.898 245.234 453.125 250 453.125ZM232.719 452.344C223.211 451.539 213.883 450.086 204.797 448.016C213.891 450.078 223.211 451.539 232.719 452.344Z" fill="white"/>
</svg>
