<svg width="38" height="31" viewBox="0 0 38 31" fill="none" xmlns="http://www.w3.org/2000/svg">
<path d="M2.47288 21.3817C2.4947 21.6036 2.69248 21.766 2.91429 21.7441C3.13627 21.7223 3.29866 21.5245 3.27678 21.3026C3.24345 20.9746 3.07004 19.4639 2.59361 17.9872C2.32556 17.1565 1.95977 16.3312 1.46525 15.7133C1.44035 15.678 -0.484622 12.9507 2.4773 10.5809L2.22572 10.2661L2.47893 10.5825C2.50286 10.5632 2.5242 10.5418 2.54256 10.5187C3.05896 9.93673 3.74434 9.11667 4.50335 8.20845C6.42038 5.91424 8.81405 3.04988 10.1544 2.03615C10.6499 1.66124 11.4462 1.2639 12.563 1.31204C13.3855 1.34726 14.3822 1.6218 15.5643 2.31372L15.7684 1.96549L15.5637 2.31523C15.5916 2.33165 15.6207 2.34413 15.6503 2.3531C16.1015 2.51933 24.0688 5.41653 29.6926 4.65947L29.6388 4.25911L29.6929 4.66071C29.7837 4.64845 29.8636 4.60696 29.924 4.54694C30.2034 4.32064 32.6071 2.47189 34.1151 4.60102L34.4443 4.36823L34.1137 4.60253C34.1335 4.63057 34.1564 4.65547 34.1815 4.67692C34.4334 4.93331 36.9289 7.61696 36.2285 12.7229L36.2273 12.7228C36.2236 12.7496 36.2226 12.7764 36.2243 12.8024C36.2145 13.0239 36.0944 14.3594 34.6164 14.1267L34.6167 14.1251C34.595 14.1216 34.5735 14.1201 34.5523 14.1201C34.1739 14.096 31.2263 14.0438 28.8544 18.032L28.8537 18.0316C28.8432 18.0493 28.8341 18.0676 28.8266 18.0861C28.6584 18.3887 26.9023 21.0939 17.8526 20.8931V20.8916C17.8166 20.8909 17.7815 20.8948 17.748 20.9029C17.3116 20.9758 12.181 21.8704 8.75668 24.1745C8.69882 24.1907 8.63605 24.2124 8.56652 24.2363C8.09464 24.399 6.82744 24.8354 6.11105 24.5102C5.47116 24.2196 5.25523 23.1876 6.50477 20.4184C7.14109 19.6667 7.99135 18.9614 8.93711 18.4035C9.84987 17.865 10.846 17.4677 11.8168 17.3037C12.5558 17.1788 13.1982 17.0458 13.7893 16.8205C14.399 16.588 14.9477 16.2608 15.4763 15.7521L15.5261 15.7043C16.1232 15.1301 16.3876 14.8753 16.3598 14.5686C16.3238 14.17 16.0601 14.1231 15.5878 14.0392C15.4602 14.0165 15.3076 13.9894 15.1832 13.9619C14.3696 13.7822 13.1196 13.4422 12.0378 12.8775C11.3276 12.5068 10.6928 12.0411 10.3188 11.4656L9.98001 11.6856L10.3198 11.4649C10.198 11.2773 9.94684 11.224 9.75933 11.3458C9.69818 11.3857 9.65145 11.4389 9.62017 11.4995C9.50553 11.6956 8.22796 13.8099 6.35691 13.9034L6.37587 14.3069L6.35566 13.9023C6.13217 13.9134 5.96017 14.1036 5.97124 14.3271C5.97205 14.3446 5.97411 14.3618 5.97702 14.3786L6.50876 19.3283C6.53232 19.5502 6.73155 19.711 6.95353 19.6875C7.1755 19.6639 7.33622 19.4647 7.31272 19.2427L6.82144 14.6615C8.36129 14.3855 9.48684 13.0971 10.0081 12.3771C10.4529 12.8638 11.0357 13.2646 11.6644 13.5929C12.8263 14.1994 14.1501 14.5604 15.0089 14.7502C15.1454 14.7803 15.2494 14.8007 15.3368 14.8168C15.2433 14.8802 15.1198 14.9736 14.9658 15.1218L14.9161 15.1696C14.4748 15.5943 14.0144 15.8684 13.5011 16.064C12.9692 16.2669 12.3734 16.3894 11.6837 16.506C10.6108 16.6874 9.51893 17.1211 8.52557 17.7071C7.49883 18.3129 6.57062 19.0866 5.8726 19.9162C5.83829 19.95 5.80955 19.9906 5.78854 20.037L6.15751 20.2045L5.78865 20.0383C4.25426 23.4177 4.74354 24.7778 5.77871 25.2477C6.78757 25.7058 8.27513 25.1933 8.82939 25.0024C8.8362 25.0001 8.83161 24.9895 8.81945 24.9738L8.81918 24.9726L8.81848 24.9724L8.81945 24.9738L8.81918 24.9726C8.91956 24.9899 9.02674 24.9695 9.11733 24.9072L8.88774 24.5732L9.11733 24.9057C12.3851 22.659 17.4237 21.7767 17.8754 21.701C27.2713 21.9009 29.3095 18.8677 29.5391 18.4636L29.5503 18.4458L29.5493 18.4452L29.5498 18.4443L29.5502 18.4445C31.6927 14.8413 34.2058 14.906 34.4876 14.9251L34.4904 14.9257V14.9254L34.514 14.9274C36.8803 15.2869 37.0231 13.0838 37.0318 12.8118C37.7786 7.31352 35.0065 4.36229 34.7472 4.09969C32.8454 1.46913 30.0282 3.44456 29.4768 3.87188C24.0878 4.54694 16.4545 1.78668 15.9361 1.59609C14.6412 0.844584 13.5287 0.544762 12.5979 0.504784C11.2432 0.44644 10.2725 0.9321 9.6669 1.39015C8.25325 2.45931 5.82641 5.36343 3.88296 7.6893C3.13297 8.58672 2.4557 9.397 1.93698 9.98157C-1.44119 12.7197 0.610839 15.8967 0.78868 16.1583C0.797702 16.1728 0.807912 16.1871 0.818987 16.2008L1.13345 15.9452L0.820067 16.2C1.25214 16.7317 1.57962 17.4759 1.82423 18.2342C2.2765 19.6359 2.44106 21.0702 2.47288 21.3817ZM8.7268 24.6987L8.72664 24.6995L8.88552 24.5703H8.88541L8.7268 24.6987ZM15.5184 14.6993C15.5452 14.6791 15.5577 14.6626 15.5557 14.6414C15.5444 14.5158 15.5376 14.6042 15.5184 14.6993Z" fill="#111827"/>
<path d="M8.99313 24.6281C8.94873 24.4096 8.73534 24.2686 8.51687 24.3131C8.29836 24.3576 8.15741 24.571 8.20182 24.7895C8.22948 24.9235 8.25065 25.0603 8.26459 25.1991C8.27761 25.3282 8.28453 25.4676 8.28453 25.617C8.28453 26.7416 7.82852 27.76 7.09172 28.4967C6.35485 29.2336 5.33659 29.6895 4.21196 29.6895C3.49184 29.6895 2.81683 29.5039 2.23264 29.1786C1.62467 28.8401 1.1126 28.3506 0.747353 27.7615C0.630179 27.5718 0.381407 27.5131 0.191681 27.6301C0.0019013 27.7471 -0.0568748 27.996 0.0602993 28.1857C0.498527 28.8925 1.11216 29.4791 1.84001 29.8846C2.54381 30.2765 3.353 30.5 4.21196 30.5C5.56019 30.5 6.78109 29.9533 7.66468 29.0697C8.54826 28.1861 9.09491 26.9653 9.09491 25.617C9.09491 25.4577 9.08594 25.2915 9.06866 25.12C9.0518 24.9534 9.02636 24.7892 8.99313 24.6281ZM0.0602993 23.0481C-0.0568748 23.2378 0.0019013 23.4866 0.191681 23.6037C0.381407 23.7208 0.630179 23.662 0.747353 23.4723C1.11243 22.8833 1.62467 22.3938 2.23237 22.0554C2.81683 21.7299 3.49168 21.5445 4.21196 21.5445C4.43804 21.5445 4.65424 21.5615 4.8592 21.5941C5.07118 21.6279 5.28127 21.6794 5.48688 21.7471C5.69935 21.8161 5.92754 21.6998 5.99652 21.4874C6.06557 21.2751 5.94926 21.0468 5.73695 20.9778C5.49758 20.8991 5.24643 20.838 4.98572 20.7965C4.72792 20.7553 4.46916 20.734 4.21196 20.734C3.35273 20.734 2.54354 20.9575 1.83974 21.3494C1.112 21.7546 0.498527 22.3414 0.0602993 23.0481Z" fill="#111827"/>
</svg>
