<svg width="500" height="500" viewBox="0 0 500 500" fill="none" xmlns="http://www.w3.org/2000/svg">
<path d="M246.354 259.354C235.958 242.594 228.417 228.698 217.969 202.531C200.302 158.333 325.417 118.396 274.687 41.6562C296.677 94.6667 195.76 127.437 186.385 171.583C177.812 212.188 246.302 259.354 246.354 259.354Z" fill="#D43A02"/>
<path d="M248.729 179.896C246.729 206.104 271.948 220.073 272.677 239.219C273.26 254.802 257.604 267.792 257.604 267.792C257.604 267.792 286.021 262.208 294.885 238.437C304.729 212.042 275.781 193.969 278.76 172.833C281.542 152.646 341.583 115.094 341.583 115.094C341.583 115.094 253.24 120.948 248.729 179.896Z" fill="#D43A02"/>
<path d="M334.208 260.99C352.479 256.885 367.886 268.521 367.886 281.927C367.886 312.146 326 340.708 326 340.708C326 340.708 390.844 332.979 390.844 283.364C390.844 250.552 359 242.354 334.208 260.99ZM303.427 285.365C303.427 285.365 323.646 270.958 329.031 265.552C279.417 276.083 166.136 277.5 166.136 268.354C166.136 259.927 202.667 251.292 202.667 251.292C202.667 251.292 121.698 250.125 121.698 274.01C121.698 298.906 227.688 300.687 303.427 285.365Z" fill="url(#paint0_linear_407_996)"/>
<path d="M290.99 308.031C244.021 323.646 157.51 318.656 183.135 297.688C170.656 297.688 152.156 307.719 152.156 317.365C152.156 336.708 245.719 351.646 314.969 323.323L290.99 308.031Z" fill="url(#paint1_linear_407_996)"/>
<path d="M194.646 341.031C177.604 341.031 166.573 352.01 166.573 360.01C166.573 384.917 268.24 387.427 308.521 362.146L282.917 345.146C252.823 358.375 177.229 360.198 194.646 341.031Z" fill="url(#paint2_linear_407_996)"/>
<path d="M377.927 381.583C377.927 371.833 366.938 367.24 363 365.042C386.208 421.01 130.531 416.667 130.531 383.625C130.531 376.115 149.354 368.76 166.75 372.24L151.958 363.5C117.292 358.062 93.75 373.302 93.75 385.594C93.75 442.917 377.927 440.156 377.927 381.583Z" fill="url(#paint3_linear_407_996)"/>
<path d="M406.25 402.125C363.062 444.781 253.552 460.323 143.427 433.969C253.552 480.875 405.729 454.458 406.25 402.125Z" fill="url(#paint4_linear_407_996)"/>
<defs>
<linearGradient id="paint0_linear_407_996" x1="236.219" y1="220.562" x2="320.177" y2="451.229" gradientUnits="userSpaceOnUse">
<stop stop-color="#5C65D6"/>
<stop offset="0.999" stop-color="#464EB0"/>
</linearGradient>
<linearGradient id="paint1_linear_407_996" x1="203.104" y1="237.187" x2="284.333" y2="460.375" gradientUnits="userSpaceOnUse">
<stop stop-color="#5C65D6"/>
<stop offset="0.999" stop-color="#464EB0"/>
</linearGradient>
<linearGradient id="paint2_linear_407_996" x1="194.771" y1="244.323" x2="276.979" y2="470.208" gradientUnits="userSpaceOnUse">
<stop stop-color="#5C65D6"/>
<stop offset="0.999" stop-color="#464EB0"/>
</linearGradient>
<linearGradient id="paint3_linear_407_996" x1="187.812" y1="252.063" x2="269.385" y2="476.167" gradientUnits="userSpaceOnUse">
<stop stop-color="#5C65D6"/>
<stop offset="0.999" stop-color="#464EB0"/>
</linearGradient>
<linearGradient id="paint4_linear_407_996" x1="215.885" y1="256.063" x2="294.042" y2="470.802" gradientUnits="userSpaceOnUse">
<stop stop-color="#5C65D6"/>
<stop offset="0.999" stop-color="#464EB0"/>
</linearGradient>
</defs>
</svg>
