<svg width="500" height="500" viewBox="0 0 500 500" fill="none" xmlns="http://www.w3.org/2000/svg">
<path d="M209.375 168.75L210.417 192.708L193.75 223.958L167.708 275L162.5 317.708L181.25 378.125L223.958 402.083H288.542L348.958 356.25L376.042 284.375L313.542 208.333L295.833 165.625L209.375 168.75Z" fill="#ECEFF1"/>
<path d="M357.292 228.125C340.625 204.166 327.083 189.583 319.792 159.375C312.5 129.166 321.875 137.5 315.625 111.458C312.5 97.9165 307.292 88.5415 302.083 81.2498C295.833 73.9581 288.542 69.7915 284.375 68.7498C275 63.5415 253.125 55.2081 226.042 69.7915C197.917 84.3748 201.042 115.625 206.25 179.166C206.25 183.333 205.208 188.541 203.125 192.708C198.958 202.083 191.667 210.416 185.417 217.708C178.125 228.125 170.833 238.541 165.625 250C153.125 273.958 141.667 304.166 144.792 315.625C150 314.583 215.625 414.583 215.625 416.666C219.792 415.625 237.5 415.625 253.125 415.625C275 414.583 287.5 413.541 305.208 417.708C305.208 414.583 304.167 411.458 304.167 408.333C304.167 402.083 305.208 396.875 306.25 389.583C307.292 384.375 308.333 379.166 309.375 372.916C298.958 382.291 280.208 392.708 262.5 395.833C246.875 398.958 220.833 393.75 208.333 378.125C209.375 378.125 211.458 378.125 212.5 377.083C215.625 376.041 218.75 375 219.792 372.916C222.917 367.708 220.833 362.5 218.75 359.375C216.667 356.25 201.042 344.791 193.75 338.541C186.458 332.291 182.292 329.166 178.125 325C178.125 325 171.875 318.75 169.792 316.666C167.708 314.583 166.667 312.5 165.625 311.458C163.542 306.25 162.5 300 163.542 291.666C164.583 280.208 168.75 270.833 173.958 260.416C176.042 256.25 181.25 247.916 181.25 247.916C181.25 247.916 163.542 291.666 172.917 305.208C172.917 305.208 173.958 291.666 178.125 278.125C181.25 268.75 186.458 255.208 192.708 247.916C198.958 240.625 214.583 213.541 215.625 196.875C215.625 189.583 216.667 182.291 216.667 177.083C212.5 172.916 285.417 162.5 289.583 173.958C290.625 178.125 305.208 215.625 313.542 235.416C317.708 244.791 322.917 253.125 326.042 263.541C329.167 275 331.25 290.625 331.25 306.25C331.25 309.375 331.25 314.583 330.208 319.791C332.292 319.791 372.917 276.041 325 239.583C325 239.583 354.167 253.125 355.208 280.208C356.25 302.083 346.875 319.791 344.792 322.916C345.833 322.916 366.667 332.291 367.708 332.291C371.875 332.291 380.208 329.166 380.208 329.166C381.25 326.041 384.375 317.708 384.375 314.583C391.667 290.625 373.958 252.083 357.292 228.125Z" fill="#263238"/>
<path d="M225 117.708C221.409 117.708 217.964 119.903 215.425 123.81C212.885 127.717 211.458 133.016 211.458 138.542C211.458 144.067 212.885 149.366 215.425 153.273C217.964 157.18 221.409 159.375 225 159.375C228.592 159.375 232.036 157.18 234.575 153.273C237.115 149.366 238.542 144.067 238.542 138.542C238.542 133.016 237.115 127.717 234.575 123.81C232.036 119.903 228.592 117.708 225 117.708ZM271.875 113.542C267.179 113.542 262.674 116.066 259.353 120.559C256.032 125.052 254.167 131.146 254.167 137.5C254.167 143.854 256.032 149.948 259.353 154.441C262.674 158.934 267.179 161.458 271.875 161.458C276.572 161.458 281.076 158.934 284.397 154.441C287.718 149.948 289.583 143.854 289.583 137.5C289.583 131.146 287.718 125.052 284.397 120.559C281.076 116.066 276.572 113.542 271.875 113.542Z" fill="#ECEFF1"/>
<path d="M218.104 141.794C218.31 143.423 218.701 145.012 219.254 146.47C219.808 147.929 220.514 149.229 221.331 150.295C222.148 151.362 223.061 152.175 224.018 152.687C224.974 153.199 225.955 153.401 226.905 153.281C227.855 153.161 228.756 152.721 229.555 151.987C230.353 151.253 231.035 150.239 231.562 149.002C232.088 147.766 232.448 146.331 232.621 144.781C232.795 143.23 232.778 141.594 232.572 139.965C232.366 138.337 231.975 136.748 231.422 135.289C230.868 133.83 230.162 132.531 229.345 131.464C228.528 130.397 227.615 129.585 226.658 129.072C225.702 128.56 224.72 128.358 223.77 128.478C222.82 128.598 221.92 129.038 221.121 129.772C220.322 130.506 219.64 131.521 219.114 132.757C218.588 133.994 218.228 135.428 218.055 136.979C217.881 138.529 217.898 140.165 218.104 141.794Z" fill="#212121"/>
<path d="M270.833 128.125C268.071 128.125 265.421 129.552 263.468 132.091C261.514 134.631 260.417 138.075 260.417 141.667C260.417 145.258 261.514 148.703 263.468 151.242C265.421 153.782 268.071 155.208 270.833 155.208C273.596 155.208 276.245 153.782 278.199 151.242C280.153 148.703 281.25 145.258 281.25 141.667C281.25 138.075 280.153 134.631 278.199 132.091C276.245 129.552 273.596 128.125 270.833 128.125Z" fill="#212121"/>
<path d="M409.375 370.833C405.208 368.75 397.917 365.625 391.667 356.25C388.542 351.042 389.583 336.459 384.375 330.209C381.25 326.042 377.083 328.125 376.042 328.125C366.667 330.209 344.792 344.792 330.208 328.125C328.125 326.042 325 322.917 319.792 322.917C314.583 322.917 312.5 325 310.417 329.167C308.333 333.333 308.333 336.458 308.333 346.875C308.333 355.208 308.333 364.584 307.292 371.875C305.208 389.584 302.083 400 302.083 410.417C302.083 421.875 305.208 429.167 309.375 432.292C312.5 435.417 317.708 437.5 329.167 437.5C340.625 437.5 347.917 433.334 355.208 426.042C360.417 420.834 364.583 418.75 379.167 408.334C390.625 401.042 408.333 391.667 411.458 388.542C413.542 386.458 416.667 385.417 416.667 379.167C416.667 373.959 412.5 371.875 409.375 370.833ZM200 373.959C189.583 357.292 188.542 354.167 181.25 343.75C175 333.334 161.458 313.542 153.125 313.542C146.875 313.542 143.75 316.667 139.583 320.833C135.417 325 131.25 334.375 123.958 339.583C117.708 344.792 99.9999 343.75 95.8333 350C91.6666 356.25 99.9999 365.625 99.9999 381.25C99.9999 387.5 94.7916 391.667 93.7499 395.834C92.7083 401.042 91.6666 404.167 93.7499 408.334C97.9166 414.584 103.125 416.667 138.542 423.959C157.292 428.125 175 438.542 186.458 439.584C197.917 440.625 217.708 439.584 217.708 411.459C218.75 394.792 209.375 390.625 200 373.959ZM219.792 185.417C213.542 181.25 208.333 177.083 208.333 170.833C208.333 164.583 212.5 162.5 218.75 157.292C219.792 156.25 231.25 145.833 242.708 145.833C254.167 145.833 267.708 153.125 272.917 155.208C282.292 157.292 291.667 159.375 290.625 166.667C289.583 177.083 288.542 179.167 278.125 184.375C270.833 186.459 257.292 197.917 247.917 197.917C243.75 197.917 237.5 197.917 233.333 196.875C230.208 195.833 225 190.625 219.792 185.417Z" fill="#FFC107"/>
<path d="M217.708 177.083C219.792 179.167 222.917 181.25 226.042 182.292C228.125 183.333 231.25 184.375 231.25 184.375C235.417 184.375 238.542 184.375 240.625 184.375C245.833 184.375 253.125 182.292 260.417 178.125C267.708 175 268.75 172.917 273.958 170.833C279.167 167.708 284.375 164.583 282.292 163.542C280.208 162.5 278.125 163.542 270.833 167.708C264.583 171.875 259.375 173.958 253.125 177.083C250 178.125 245.833 180.208 242.708 180.208C239.583 180.208 236.458 180.208 233.333 180.208C230.208 180.208 228.125 179.167 225 178.125C222.917 177.083 221.875 176.042 220.833 176.042C218.75 175 214.583 170.833 212.5 169.792C212.5 169.792 210.417 169.792 211.458 170.833C214.583 173.958 215.625 175 217.708 177.083ZM248.958 154.167C250 156.25 252.083 156.25 253.125 157.292C254.167 158.333 255.208 158.333 255.208 158.333C256.25 157.292 255.208 155.208 254.167 155.208C254.167 153.125 248.958 153.125 248.958 154.167ZM232.292 156.25C232.292 157.292 234.375 158.333 234.375 157.292C235.417 156.25 236.458 155.208 237.5 155.208C239.583 154.167 238.542 153.125 235.417 153.125C233.333 154.167 233.333 155.208 232.292 156.25Z" fill="#634703"/>
<path d="M333.333 340.625C333.333 341.667 333.333 342.709 333.333 343.75C335.417 347.917 340.625 348.959 344.792 348.959C351.042 348.959 357.292 344.792 360.417 340.625C360.417 339.584 361.458 338.542 362.5 337.5C364.583 334.375 365.625 332.292 366.667 331.25C366.667 331.25 365.625 330.209 365.625 329.167C364.583 327.084 361.458 325 357.292 323.959C354.167 322.917 348.958 321.875 346.875 321.875C337.5 320.834 332.292 323.959 329.167 327.084C329.167 327.084 330.208 327.084 330.208 328.125C332.292 330.209 333.333 332.292 333.333 335.417C334.375 337.5 333.333 338.542 333.333 340.625Z" fill="#455A64"/>
</svg>
