<svg width="500" height="500" viewBox="0 0 500 500" fill="none" xmlns="http://www.w3.org/2000/svg">
<path d="M250 285C269.33 285 285 269.33 285 250C285 230.67 269.33 215 250 215C230.67 215 215 230.67 215 250C215 269.33 230.67 285 250 285Z" fill="#39C1D7"/>
<path d="M250 290C227.945 290 210 272.055 210 250C210 227.945 227.945 210 250 210C272.055 210 290 227.945 290 250C290 272.055 272.055 290 250 290ZM250 220C233.455 220 220 233.455 220 250C220 266.545 233.455 280 250 280C266.545 280 280 266.545 280 250C280 233.455 266.545 220 250 220Z" fill="#1F212B"/>
<path d="M442.5 250C442.5 223.12 410.13 199.855 359.91 186.01C372.82 135.53 368.845 95.8351 345.775 82.3651C336.675 77.0501 325.635 76.0801 312.965 79.4701C293.875 84.5801 272 99.5201 250 121.465C228 99.5201 206.125 84.5851 187.035 79.4701C174.365 76.0751 163.325 77.0501 154.225 82.3651C131.155 95.8351 127.18 135.525 140.09 186.01C89.87 199.855 57.5 223.12 57.5 250C57.5 276.88 89.87 300.145 140.09 313.995C127.18 364.475 131.155 404.17 154.225 417.64C159.785 420.885 166.065 422.52 173.005 422.515C177.42 422.515 182.105 421.855 187.035 420.535C206.125 415.42 228 400.485 250 378.54C272 400.485 293.875 415.42 312.965 420.535C317.895 421.855 322.58 422.515 326.995 422.515C333.935 422.515 340.215 420.89 345.775 417.64C368.845 404.17 372.815 364.475 359.91 313.995C410.13 300.145 442.5 276.88 442.5 250ZM316.845 93.9551C320.47 92.9901 323.83 92.5001 326.925 92.5001C331.225 92.5001 335.005 93.4401 338.21 95.3151C353.67 104.345 356.825 137.415 345.31 182.37C329.445 178.8 312.135 176.115 293.74 174.455C282.945 158.89 271.715 144.72 260.4 132.31C280.49 112.175 300.2 98.4151 316.845 93.9551ZM303.775 281.495C297.88 291.825 291.675 301.72 285.31 311.19C274.01 312.035 262.23 312.5 250 312.5C237.77 312.5 225.99 312.035 214.695 311.19C208.33 301.72 202.125 291.825 196.23 281.495C190.135 270.815 184.665 260.295 179.765 250.005C184.665 239.715 190.135 229.195 196.23 218.51C202.13 208.175 208.33 198.28 214.7 188.81C225.995 187.965 237.77 187.5 250 187.5C262.23 187.5 274.005 187.965 285.305 188.81C291.67 198.28 297.875 208.18 303.775 218.51C309.87 229.19 315.34 239.71 320.24 250.005C315.34 260.295 309.87 270.815 303.775 281.495ZM328.22 267.725C333.425 280.03 337.725 291.875 341.205 303.135C329.83 305.67 317.55 307.785 304.435 309.35C308.645 302.72 312.795 295.94 316.8 288.925C320.855 281.83 324.64 274.755 328.22 267.725ZM250 356.785C241.82 347.74 233.655 337.725 225.68 326.89C233.64 327.275 241.74 327.5 250 327.5C258.26 327.5 266.36 327.275 274.32 326.89C266.345 337.72 258.18 347.735 250 356.785ZM195.56 309.35C182.45 307.785 170.165 305.67 158.79 303.135C162.27 291.875 166.57 280.025 171.775 267.725C175.355 274.755 179.145 281.83 183.195 288.925C187.205 295.945 191.35 302.725 195.56 309.35ZM171.78 232.28C166.575 219.975 162.27 208.125 158.795 196.86C170.17 194.325 182.455 192.21 195.57 190.645C191.355 197.275 187.21 204.06 183.205 211.075C179.145 218.175 175.36 225.25 171.78 232.28ZM250 143.22C258.18 152.265 266.345 162.28 274.32 173.115C266.36 172.725 258.26 172.5 250 172.5C241.74 172.5 233.64 172.725 225.68 173.11C233.655 162.28 241.82 152.265 250 143.22ZM316.8 211.08C312.795 204.06 308.645 197.28 304.435 190.65C317.55 192.215 329.83 194.33 341.21 196.865C337.73 208.13 333.43 219.975 328.225 232.285C324.64 225.25 320.855 218.175 316.8 211.08ZM161.79 95.3151C165 93.4401 168.77 92.5001 173.075 92.5001C176.165 92.5001 179.535 92.9901 183.155 93.9551C199.8 98.4151 219.51 112.17 239.6 132.305C228.285 144.715 217.055 158.89 206.26 174.45C187.865 176.11 170.55 178.795 154.69 182.365C143.175 137.41 146.33 104.34 161.79 95.3151ZM72.5 250C72.5 232.02 99.505 212.8 144.175 200.495C149.02 216.29 155.38 232.925 163.205 250C155.38 267.075 149.02 283.71 144.175 299.505C99.505 287.2 72.5 267.98 72.5 250ZM183.155 406.045C174.49 408.355 167.305 407.9 161.79 404.69C146.33 395.66 143.18 362.59 154.69 317.635C170.55 321.205 187.865 323.89 206.255 325.55C217.05 341.115 228.28 355.285 239.595 367.7C219.51 387.83 199.8 401.585 183.155 406.045ZM338.21 404.69C332.695 407.91 325.515 408.36 316.845 406.045C300.2 401.585 280.49 387.83 260.4 367.695C271.715 355.285 282.945 341.11 293.74 325.545C312.135 323.885 329.445 321.2 345.305 317.63C356.825 362.59 353.67 395.66 338.21 404.69ZM355.825 299.505C350.98 283.71 344.62 267.075 336.795 250C344.62 232.925 350.98 216.285 355.825 200.495C400.495 212.8 427.5 232.02 427.5 250C427.5 267.98 400.495 287.2 355.825 299.505Z" fill="#39C1D7"/>
<path d="M172.975 425.01C165.62 425.01 158.89 423.255 152.97 419.795C129.81 406.27 124.055 368.415 137.08 315.74C84.875 300.895 55 277 55 250C55 223 84.875 199.105 137.075 184.26C124.055 131.585 129.81 93.7298 152.97 80.2048C162.66 74.5348 174.335 73.4748 187.685 77.0548C206.275 82.0348 227.785 96.1548 250 117.95C272.22 96.1548 293.73 82.0348 312.315 77.0548C325.66 73.4848 337.34 74.5448 347.035 80.2048C370.19 93.7298 375.945 131.585 362.925 184.26C415.125 199.105 445 223 445 250C445 277 415.125 300.895 362.925 315.74C375.945 368.415 370.195 406.265 347.035 419.795C337.4 425.42 325.605 426.505 312.32 422.945C293.725 417.965 272.215 403.845 250 382.055C227.785 403.845 206.275 417.97 187.685 422.945C182.57 424.315 177.63 425.01 173.005 425.01C172.995 425.01 172.985 425.01 172.975 425.01ZM173.02 79.9948C166.515 79.9948 160.65 81.5048 155.485 84.5248C134.365 96.8598 129.515 134.565 142.51 185.39C142.845 186.71 142.065 188.06 140.75 188.42C90.19 202.36 60 225.385 60 250C60 274.615 90.19 297.64 140.755 311.58C142.07 311.94 142.85 313.29 142.515 314.61C129.515 365.435 134.365 403.145 155.485 415.475C160.635 418.48 166.52 420.005 172.975 420.005C172.985 420.005 172.995 420.005 173.005 420.005C177.195 420.005 181.695 419.37 186.39 418.115C204.625 413.23 226.015 398.935 248.235 376.765C249.21 375.795 250.79 375.795 251.765 376.765C273.985 398.93 295.375 413.225 313.61 418.115C325.58 421.31 336.035 420.42 344.515 415.475C365.635 403.14 370.485 365.435 357.485 314.61C357.15 313.29 357.93 311.94 359.245 311.58C409.81 297.64 440 274.615 440 250C440 225.385 409.81 202.36 359.245 188.42C357.93 188.06 357.15 186.71 357.485 185.39C370.48 134.565 365.63 96.8548 344.51 84.5248C336.015 79.5598 325.615 78.6748 313.605 81.8848C295.37 86.7698 273.985 101.065 251.76 123.235C250.785 124.205 249.205 124.205 248.23 123.235C226.005 101.065 204.62 86.7698 186.385 81.8848C181.68 80.6248 177.22 79.9948 173.02 79.9948ZM326.93 409.995C323.615 409.995 320.035 409.485 316.2 408.46C299.545 403.995 279.64 390.515 258.63 369.46C257.69 368.515 257.655 366.995 258.55 366.01C269.875 353.59 281.02 339.495 291.685 324.12C292.105 323.51 292.775 323.12 293.515 323.055C311.575 321.425 328.815 318.78 344.76 315.19C346.065 314.895 347.395 315.695 347.73 317.01C359.41 362.625 356.245 397.05 339.47 406.845C335.875 408.945 331.68 409.995 326.93 409.995ZM263.855 367.605C283.61 387.075 302.12 399.51 317.49 403.63C325.485 405.765 332.035 405.395 336.95 402.53C351.225 394.19 353.735 362.165 343.48 320.595C328.34 323.89 312.095 326.355 295.13 327.93C285.05 342.39 274.54 355.72 263.855 367.605ZM173.07 409.995C168.32 409.995 164.125 408.945 160.53 406.85C143.755 397.05 140.585 362.625 152.27 317.01C152.605 315.7 153.935 314.915 155.24 315.19C171.18 318.78 188.42 321.425 206.485 323.055C207.22 323.12 207.895 323.51 208.315 324.12C218.98 339.495 230.125 353.59 241.45 366.01C242.35 366.995 242.315 368.515 241.37 369.46C220.36 390.51 200.455 403.995 183.805 408.46C179.965 409.48 176.38 409.995 173.07 409.995ZM156.52 320.595C146.265 362.16 148.775 394.19 163.05 402.53C167.96 405.39 174.51 405.765 182.51 403.63C197.88 399.51 216.39 387.07 236.145 367.605C225.465 355.72 214.955 342.39 204.875 327.93C187.91 326.355 171.66 323.89 156.52 320.595ZM250 359.28C249.295 359.28 248.62 358.98 248.145 358.455C239.83 349.26 231.595 339.135 223.665 328.365C223.095 327.59 223.02 326.55 223.475 325.7C223.93 324.85 224.78 324.33 225.8 324.385C242.33 325.19 257.67 325.19 274.2 324.385C275.2 324.325 276.07 324.85 276.525 325.7C276.98 326.55 276.91 327.585 276.335 328.365C268.405 339.13 260.17 349.255 251.855 358.455C251.38 358.98 250.705 359.28 250 359.28ZM230.835 329.62C237.09 337.895 243.52 345.75 250 353.04C256.485 345.75 262.91 337.9 269.165 329.62C256.105 330.12 243.895 330.12 230.835 329.62ZM250 315C238.155 315 226.215 314.56 214.505 313.685C213.74 313.63 213.045 313.225 212.615 312.585C205.93 302.64 199.685 292.595 194.055 282.735C188.155 272.395 182.585 261.745 177.505 251.075C177.18 250.395 177.18 249.605 177.505 248.925C182.585 238.255 188.155 227.605 194.055 217.265C199.68 207.415 205.925 197.37 212.62 187.41C213.045 186.775 213.745 186.37 214.51 186.31C237.93 184.56 262.075 184.56 285.49 186.31C286.255 186.365 286.95 186.77 287.38 187.41C294.075 197.37 300.32 207.415 305.945 217.265C311.845 227.605 317.415 238.255 322.495 248.925C322.82 249.605 322.82 250.395 322.495 251.075C317.415 261.745 311.845 272.395 305.945 282.735C300.315 292.595 294.07 302.64 287.385 312.585C286.96 313.22 286.26 313.625 285.495 313.685C273.785 314.56 261.845 315 250 315ZM216.09 308.785C238.485 310.395 261.515 310.395 283.905 308.785C290.27 299.27 296.22 289.675 301.6 280.25C307.24 270.365 312.575 260.195 317.465 250C312.575 239.805 307.24 229.63 301.6 219.75C296.225 210.335 290.275 200.74 283.9 191.21C261.505 189.6 238.48 189.6 216.085 191.21C209.715 200.74 203.76 210.335 198.385 219.75C192.745 229.635 187.41 239.805 182.52 250C187.41 260.195 192.745 270.37 198.385 280.25C203.775 289.68 209.725 299.27 216.09 308.785ZM304.44 311.855C303.59 311.855 302.785 311.42 302.325 310.69C301.81 309.87 301.815 308.83 302.33 308.015C306.97 300.71 310.995 294.06 314.63 287.69C318.45 281 322.27 273.9 325.995 266.595C326.435 265.73 327.36 265.215 328.31 265.235C329.28 265.27 330.145 265.86 330.525 266.76C335.6 278.755 339.995 290.75 343.595 302.405C343.805 303.07 343.72 303.795 343.37 304.395C343.02 305 342.43 305.43 341.75 305.58C330 308.205 317.545 310.31 304.735 311.84C304.635 311.85 304.535 311.855 304.44 311.855ZM327.98 273.655C325.01 279.345 321.99 284.88 318.975 290.165C316.06 295.275 312.895 300.56 309.375 306.21C319.225 304.9 328.825 303.245 338.01 301.275C335.125 292.205 331.765 282.95 327.98 273.655ZM195.56 311.855C195.46 311.855 195.36 311.85 195.26 311.84C182.455 310.305 170 308.2 158.25 305.575C157.57 305.425 156.985 304.995 156.63 304.39C156.28 303.785 156.2 303.065 156.405 302.4C160.005 290.74 164.4 278.75 169.475 266.755C169.855 265.86 170.72 265.265 171.69 265.23C172.6 265.135 173.565 265.725 174.005 266.59C177.73 273.895 181.55 280.995 185.37 287.685C189.01 294.055 193.035 300.705 197.67 308.01C198.19 308.825 198.19 309.865 197.675 310.685C197.215 311.42 196.415 311.855 195.56 311.855ZM161.995 301.275C171.18 303.245 180.78 304.9 190.63 306.21C187.105 300.56 183.945 295.275 181.03 290.165C178.01 284.88 174.995 279.34 172.025 273.655C168.235 282.95 164.875 292.205 161.995 301.275ZM355.825 302.005C354.75 302.005 353.765 301.31 353.435 300.235C348.56 284.34 342.195 267.79 334.525 251.045C334.22 250.385 334.22 249.62 334.525 248.96C342.195 232.215 348.56 215.66 353.44 199.76C353.84 198.465 355.21 197.74 356.495 198.085C401.835 210.58 430 230.47 430 250C430 269.53 401.83 289.42 356.485 301.915C356.265 301.975 356.04 302.005 355.825 302.005ZM339.545 250C346.725 265.775 352.76 281.385 357.49 296.44C398.585 284.725 425 266.61 425 250C425 233.39 398.585 215.275 357.49 203.56C352.755 218.62 346.72 234.23 339.545 250ZM144.175 302.005C143.955 302.005 143.735 301.975 143.51 301.915C98.17 289.42 70 269.53 70 250C70 230.47 98.165 210.58 143.51 198.085C144.8 197.74 146.165 198.465 146.565 199.76C151.445 215.66 157.81 232.215 165.48 248.96C165.785 249.62 165.785 250.38 165.48 251.045C157.805 267.795 151.445 284.345 146.57 300.235C146.24 301.31 145.25 302.005 144.175 302.005ZM142.51 203.56C101.415 215.275 75 233.39 75 250C75 266.61 101.415 284.725 142.51 296.44C147.245 281.385 153.275 265.78 160.455 250C153.28 234.23 147.245 218.62 142.51 203.56ZM328.225 234.785C327.285 234.785 326.425 234.26 325.995 233.42C322.21 225.98 318.49 219.075 314.635 212.32C311.005 205.96 306.98 199.31 302.33 191.99C301.81 191.175 301.81 190.135 302.325 189.315C302.84 188.5 303.76 188.05 304.74 188.165C317.555 189.7 330.01 191.805 341.76 194.425C342.44 194.575 343.025 195.005 343.38 195.61C343.73 196.215 343.81 196.935 343.605 197.6C340 209.28 335.6 221.275 330.535 233.255C330.155 234.15 329.29 234.745 328.32 234.78C328.28 234.785 328.25 234.785 328.225 234.785ZM318.97 209.84C322.025 215.19 324.995 220.63 327.975 226.35C331.755 217.07 335.115 207.805 338 198.725C328.815 196.755 319.215 195.1 309.36 193.79C312.9 199.45 316.06 204.735 318.97 209.84ZM171.775 234.785C171.745 234.785 171.715 234.785 171.685 234.785C170.715 234.75 169.85 234.16 169.47 233.26C164.405 221.28 160.005 209.285 156.4 197.605C156.19 196.94 156.275 196.215 156.625 195.615C156.975 195.01 157.565 194.58 158.245 194.43C169.995 191.805 182.45 189.7 195.265 188.17C196.24 188.07 197.165 188.505 197.68 189.32C198.195 190.14 198.19 191.18 197.675 191.995C193.025 199.315 189 205.965 185.37 212.325C181.515 219.08 177.795 225.98 174.01 233.425C173.575 234.26 172.715 234.785 171.775 234.785ZM161.995 198.725C164.88 207.805 168.245 217.07 172.02 226.35C175.005 220.63 177.97 215.19 181.025 209.84C183.94 204.735 187.1 199.45 190.63 193.79C180.78 195.1 171.18 196.755 161.995 198.725ZM345.315 184.87C345.13 184.87 344.95 184.85 344.765 184.81C328.825 181.22 311.58 178.575 293.515 176.945C292.78 176.88 292.105 176.49 291.685 175.88C281.02 160.5 269.87 146.41 258.55 133.995C257.65 133.01 257.685 131.49 258.63 130.545C279.635 109.495 299.545 96.0048 316.2 91.5448C325.545 89.0448 333.39 89.6098 339.47 93.1548C356.245 102.955 359.415 137.38 347.735 182.995C347.445 184.115 346.435 184.87 345.315 184.87ZM295.125 172.07C312.09 173.645 328.34 176.11 343.48 179.405C353.735 137.84 351.225 105.81 336.945 97.4698C332.05 94.6148 325.49 94.2398 317.49 96.3698C302.12 100.49 283.605 112.93 263.85 132.4C274.535 144.275 285.045 157.605 295.125 172.07ZM154.685 184.87C153.565 184.87 152.555 184.115 152.265 182.99C140.585 137.375 143.75 102.955 160.525 93.1548C166.605 89.6098 174.465 89.0448 183.795 91.5448C200.455 96.0098 220.36 109.495 241.365 130.545C242.305 131.49 242.34 133.01 241.445 133.995C230.125 146.41 218.975 160.505 208.31 175.88C207.89 176.49 207.22 176.88 206.48 176.945C188.42 178.575 171.175 181.22 155.23 184.81C155.05 184.85 154.87 184.87 154.685 184.87ZM163.05 97.4698C148.775 105.81 146.265 137.84 156.515 179.405C171.655 176.11 187.905 173.645 204.87 172.07C214.955 157.605 225.46 144.275 236.14 132.395C216.385 112.925 197.875 100.485 182.5 96.3648C174.535 94.2398 167.965 94.6098 163.05 97.4698ZM274.32 175.61C274.28 175.61 274.24 175.61 274.2 175.61C257.67 174.805 242.335 174.805 225.805 175.61C224.775 175.635 223.935 175.14 223.48 174.295C223.025 173.445 223.095 172.41 223.67 171.63C231.605 160.855 239.84 150.73 248.15 141.54C249.1 140.495 250.91 140.495 251.86 141.54C260.165 150.725 268.4 160.85 276.34 171.63C276.91 172.405 276.985 173.445 276.53 174.295C276.085 175.105 275.235 175.61 274.32 175.61ZM250 170C256.21 170 262.635 170.13 269.165 170.385C262.905 162.1 256.475 154.245 250 146.965C243.525 154.25 237.095 162.1 230.835 170.385C237.365 170.13 243.79 170 250 170Z" fill="#1F212B"/>
</svg>
