<svg width="500" height="500" viewBox="0 0 500 500" fill="none" xmlns="http://www.w3.org/2000/svg">
<g clip-path="url(#clip0_407_991)">
<path d="M250 100.042C183.333 100.042 141.667 133.364 125 200.01C150 166.687 179.167 154.198 212.5 162.521C231.521 167.271 245.115 181.073 260.167 196.344C284.667 221.208 313.031 250 375 250C441.667 250 483.333 216.677 500 150.021C475 183.344 445.833 195.844 412.5 187.521C393.49 182.771 379.896 168.969 364.844 153.698C340.333 128.823 311.958 100.042 250 100.042ZM125 250C58.3333 250 16.6667 283.323 0 349.979C25 316.656 54.1667 304.156 87.5 312.489C106.51 317.25 120.104 331.041 135.156 346.302C159.667 371.177 188.042 399.969 250 399.969C316.667 399.969 358.333 366.646 375 299.989C350 333.312 320.833 345.812 287.5 337.479C268.479 332.729 254.885 318.927 239.833 303.667C215.333 278.792 186.969 250 125 250Z" fill="#00ACC1"/>
</g>
<defs>
<clipPath id="clip0_407_991">
<rect width="500" height="500" fill="white"/>
</clipPath>
</defs>
</svg>
