<svg width="500" height="500" viewBox="0 0 500 500" fill="none" xmlns="http://www.w3.org/2000/svg">
<path d="M437.5 62.5H62.5V437.5H437.5V62.5Z" fill="#1976D2"/>
<path d="M286.354 229.167H148.198V263.167H197.75V416.667H237.011V263.167H286.354V229.167Z" fill="white"/>
<path d="M408.271 271.708C408.271 271.708 389.656 259.292 368.615 259.292C347.573 259.292 340 269.292 340 279.979C340 307.563 416.885 304.802 416.885 360.313C416.885 445.823 299.656 407.896 299.656 407.896V366.875C299.656 366.875 322.073 383.771 348.958 383.771C375.844 383.771 374.823 366.188 374.823 363.771C374.823 338.26 298.625 338.26 298.625 281.708C298.625 204.823 409.646 235.156 409.646 235.156L408.271 271.708Z" fill="white"/>
</svg>
